<?xml version="1.0" encoding="utf-8"?>
<!-- Generator: Adobe Illustrator 24.0.2, SVG Export Plug-In . SVG Version: 6.00 Build 0)  -->
<svg version="1.1" id="Layer_1" xmlns="http://www.w3.org/2000/svg" xmlns:xlink="http://www.w3.org/1999/xlink" x="0px" y="0px"
	 viewBox="0 0 760.9 147" style="enable-background:new 0 0 760.9 147;" xml:space="preserve">
<style type="text/css">
	.st0{fill:#9BC539;}
	.st1{fill:#101820;}
	.st2{fill:#228848;}
</style>
<path class="st0" d="M91,25C82.5,10.4,66.7,0.5,48.6,0.5S14.7,10.3,6.2,25C2,32.2-0.4,40.6-0.4,49.5v49h49c27,0,49-21.9,49-49
	C97.6,40.6,95.2,32.2,91,25z"/>
<g>
	<path class="st1" d="M759.5,99.7c-0.7-1.2-1.6-2.1-2.7-2.7c-1.2-0.7-2.5-1-3.9-1s-2.7,0.3-3.9,1s-2.1,1.6-2.8,2.8s-1,2.5-1,3.8
		c0,1.4,0.3,2.7,1,3.8c0.7,1.2,1.6,2.1,2.7,2.8c1.2,0.7,2.4,1,3.9,1c1.4,0,2.7-0.3,3.9-1s2.1-1.6,2.8-2.8s1-2.5,1-3.9
		C760.5,102.1,760.1,100.9,759.5,99.7z M758.2,106.7c-0.5,1-1.3,1.7-2.2,2.3s-2,0.8-3.1,0.8s-2.2-0.3-3.1-0.8
		c-0.9-0.5-1.7-1.3-2.2-2.2s-0.8-2-0.8-3.1c0-1.2,0.3-2.2,0.8-3.2s1.3-1.7,2.2-2.2c0.9-0.6,2-0.8,3.2-0.8s2.2,0.3,3.2,0.8
		c0.9,0.5,1.7,1.3,2.2,2.2s0.8,2,0.8,3.2C759,104.7,758.7,105.8,758.2,106.7z"/>
	<path class="st1" d="M756.4,104c0.3-0.4,0.4-1,0.4-1.6c0-0.9-0.3-1.6-1-2.2c-0.7-0.5-1.5-0.8-2.7-0.8h-3.7v8.4h2.2v-2.4h1.4h0.1
		l1.6,2.4h2.2l-1.8-2.8C755.8,104.7,756.2,104.4,756.4,104z M754.2,103.4c-0.3,0.2-0.7,0.3-1.2,0.3h-1.3v-2.6h1.3
		c0.5,0,0.9,0.1,1.2,0.3s0.4,0.6,0.4,1S754.5,103.1,754.2,103.4z"/>
	<path class="st1" d="M577.9,83.1c-0.9-7.1-3.3-13.3-7-18.3c-3.7-5.1-8.5-8.7-14.2-11c-5.8-2.3-12-3-18.8-2.1
		c-6.9,0.9-12.9,3.2-18,7s-8.8,8.6-11.2,14.5s-3.1,12.2-2.2,19c0.9,6.9,3.3,12.9,7.2,17.9s9,8.7,15.2,11s13.2,2.9,20.9,1.9
		c6-0.8,11.3-2.5,15.8-5s8.1-5.9,10.8-10.1L566.3,99c-4.3,5.7-10.3,9.1-18,10.1c-6,0.8-11.3-0.1-15.7-2.5c-4.5-2.5-7.5-6.2-9.1-11.2
		l54.8-7.2C578.2,85.9,578.1,84.2,577.9,83.1z M521.9,84.3c0.1-5.2,1.8-9.7,5-13.2c3.2-3.6,7.4-5.7,12.7-6.4s10,0.3,14,3
		s6.7,6.5,8,11.5L521.9,84.3z"/>
	<path class="st1" d="M375.4,108h-36.6l24.7-23.5c6-5.6,10-10.6,12.1-15s3.2-9.1,3.2-14.1c0-8.2-3-14.7-9-19.4s-14-7.1-24-7.1
		c-7.6,0-11.9,0.8-18,3.6c-7,3.1-14.6,13.2-15.7,22.6h15.3c2.8-5.9,7.5-11.2,17-11.2c5.6,0,9.9,1.1,12.8,3.4s4.4,5.6,4.4,9.9
		c0,2.9-0.7,5.8-2.2,8.8c-1.5,3-4.2,6.4-8.4,10.4l-36.7,34.8v11.5h75.1C389.4,122.5,379.8,116.7,375.4,108z"/>
	<path class="st1" d="M422.3,65.2c3.6,0,6.9,0.8,10,2.4c3,1.6,5.6,4.1,7.6,7.3l12.7-7.4c-2.6-5.3-6.6-9.3-11.8-12.1
		s-11.3-4.2-18.3-4.2c-7.4,0-14,1.5-19.7,4.6c-5.8,3.1-10.3,7.4-13.5,12.8c-3.3,5.5-4.9,11.7-4.9,18.6c0,7,1.6,13.2,4.9,18.7
		s7.8,9.8,13.6,12.9c5.8,3.1,12.4,4.6,19.7,4.6c6.9,0,12.9-1.4,18.1-4.3s9.2-6.9,11.9-12.2l-12.7-7.4c-2,3.3-4.6,5.7-7.6,7.3
		s-6.4,2.4-10,2.4c-6.2,0-11.4-2-15.4-6s-6-9.3-6-16s2-12,6.1-16C411.1,67.2,416.2,65.2,422.3,65.2z"/>
	<rect x="217.8" y="52" class="st1" width="16.5" height="70.5"/>
	<path class="st1" d="M304.4,64.2c0.2-0.2,0.4-0.5,0.5-0.7c0.7-1.1,1-2.5,1-3.9c0-4.3-3.4-7.7-7.7-7.7h-7.7H247v13.2h37.9
		l-38.7,46.8v10.4H307v-13.2h-40L304.4,64.2z"/>
	<circle class="st1" cx="226.1" cy="36.9" r="9.5"/>
	<ellipse class="st1" cx="683.7" cy="36.9" rx="9.5" ry="9.5"/>
	<path class="st1" d="M187.9,55.7c-5.4-3-11.5-4.5-18.4-4.5c-4.6,0-8.8,0.8-12.6,2.4s-7.1,3.9-10,7V40v-7.1v-0.5
		c0-4.3-3.5-7.7-7.7-7.7h-0.5h-8.2v15.4v82.5h15.7v-9.2c2.7,3.3,6.1,5.9,10.1,7.5c4,1.7,8.4,2.5,13.3,2.5c6.9,0,13-1.5,18.4-4.5
		s9.7-7.2,12.7-12.7c3.1-5.5,4.6-11.8,4.6-18.9s-1.5-13.4-4.6-18.9C197.7,62.9,193.4,58.7,187.9,55.7z M182.7,103.2
		c-3.9,4-8.9,6.1-15,6.1c-4,0-7.5-0.9-10.7-2.7s-5.7-4.4-7.5-7.7s-2.8-7.2-2.8-11.6s0.9-8.3,2.8-11.6c1.8-3.3,4.4-5.9,7.5-7.7
		c3.2-1.8,6.7-2.7,10.7-2.7c6.1,0,11.1,2,15,6.1c3.9,4,5.9,9.4,5.9,16S186.7,99.2,182.7,103.2z"/>
	<path class="st1" d="M478,62.3v-2.5c0-4.3-3.5-7.7-7.7-7.7h-8v10.3v60.2h16.5V88.4c0-7,1.8-12.4,5.4-16.2c3.6-3.7,8.6-5.6,15-5.6
		c1.1,0,2.4,0.1,3.8,0.4V51.3C491.1,51.2,482.8,54.9,478,62.3z"/>
	<path class="st1" d="M642.6,32.3v28.3c-2.8-3.1-6.1-5.4-10-7c-3.8-1.6-8-2.4-12.6-2.4c-6.9,0-13,1.5-18.4,4.5s-9.7,7.2-12.7,12.7
		c-3.1,5.5-4.6,11.7-4.6,18.9c0,7.1,1.5,13.4,4.6,18.9s7.3,9.7,12.7,12.7s11.5,4.5,18.4,4.5c4.8,0,9.3-0.8,13.3-2.5
		s7.4-4.2,10.1-7.5v9.1h15.7V24.6h-8.8C646,24.6,642.6,28,642.6,32.3z M640.1,98.8c-1.8,3.3-4.4,5.9-7.5,7.7
		c-3.2,1.8-6.7,2.7-10.7,2.7c-6.1,0-11.1-2-15-6.1c-3.9-4-5.9-9.4-5.9-16s2-11.9,5.9-16c3.9-4,8.9-6.1,15-6.1c4,0,7.5,0.9,10.7,2.7
		s5.7,4.4,7.5,7.7c1.9,3.3,2.8,7.2,2.8,11.6C642.8,91.6,641.9,95.5,640.1,98.8z"/>
	<rect x="675.6" y="52" class="st1" width="16.5" height="70.5"/>
	<path class="st1" d="M738.5,109.4c0,0-0.4,0.4-4.1,0.4c-3.2,0-5.6-0.9-7.3-2.7s-2.1-4.5-2.1-7.9V65.7h15V52.5h-15v-8.4
		c0-4.3-3.4-7.7-7.7-7.7h-8.8v16.1v13.2v33.9c0,7.7,2.1,13.6,6.3,17.7c4.2,4,10.2,6.1,17.9,6.1c3.1,0,4.1,0.1,7.3-0.6
		c2.8-0.6,5.1-2,7.1-3.6C747.2,119.2,742.3,115.6,738.5,109.4z"/>
</g>
<path class="st2" d="M91,73.5C82.5,58.9,66.7,49,48.6,49S14.7,58.8,6.2,73.5C2,80.7-0.4,89.1-0.4,98v49h49c27,0,49-21.9,49-49
	C97.6,89.1,95.2,80.7,91,73.5z"/>
</svg>
